<svg width="79" height="84" viewBox="0 0 79 84" fill="none" xmlns="http://www.w3.org/2000/svg">
<path d="M72.5076 0C73.3948 0.573914 73.6166 1.42868 73.6085 2.4259C73.5861 5.05126 73.6004 7.67864 73.6004 10.306C73.6004 10.4424 73.6044 10.5767 73.6004 10.7131C73.5495 11.9341 72.8841 12.6933 71.893 12.6668C70.9325 12.6424 70.2895 11.8955 70.2732 10.709C70.2508 9.09104 70.2671 7.47309 70.2671 5.82868C69.8601 5.87753 69.7197 6.16856 69.5243 6.36597C64.2151 11.6635 58.914 16.9671 53.6088 22.2687C52.2698 23.6078 51.6267 23.6058 50.2836 22.2626C48.7126 20.6935 47.1436 19.1223 45.5747 17.5532C45.0252 17.0037 44.4853 16.9942 43.9548 17.5247C35.0518 26.4285 26.1508 35.3303 17.2478 44.2321C16.9996 44.4804 16.7452 44.7286 16.4603 44.9301C15.8335 45.3717 14.9809 45.3107 14.4416 44.8223C13.8759 44.3114 13.7538 43.4404 14.1832 42.7606C14.3398 42.5124 14.5474 42.2905 14.755 42.0809C24.2278 32.6012 33.7047 23.1234 43.1816 13.6457C44.3476 12.4796 45.1311 12.4755 46.2849 13.6254C48.0106 15.3451 49.7382 17.0648 51.4497 18.7987C51.7834 19.1366 51.9869 19.275 52.4061 18.8557C57.463 13.7678 62.5423 8.69825 67.6155 3.62461C67.6888 3.55135 67.7478 3.46587 67.9248 3.25014C66.8137 3.25014 65.8329 3.25014 64.85 3.25014C64.0645 3.25014 63.279 3.25014 62.4955 3.25014C61.2806 3.25014 60.6498 2.91027 60.3934 2.12063C60.1309 1.3086 60.4402 0.696023 61.4638 0.00203516H72.5117L72.5076 0Z" fill="white"/>
<path d="M39.3335 83.1972C26.8795 83.1972 14.4254 83.1972 1.97138 83.1972C0.795163 83.1972 0.143964 82.7271 0.0177952 81.8072C-0.118548 80.8059 0.540791 79.9959 1.57659 79.9593C2.5778 79.9247 3.58105 79.9104 4.58022 79.9633C5.19275 79.9959 5.35758 79.8046 5.35351 79.1981C5.32909 74.7309 5.35554 70.2617 5.33315 65.7946C5.32298 63.8103 6.02912 62.2697 7.84635 61.3437C8.51179 61.0038 9.23014 60.9163 9.97087 60.9204C12.4067 60.9306 14.8467 60.9957 17.2805 60.9041C19.8263 60.8064 22.1319 62.5831 22.1054 65.7986C22.0708 70.2129 22.1156 74.6251 22.079 79.0394C22.0729 79.7822 22.2703 79.9837 23.013 79.9694C25.3939 79.9206 27.7789 79.9226 30.1599 79.9694C30.8843 79.9837 31.1 79.8107 31.098 79.0516C31.0695 70.0358 31.0776 61.0181 31.0817 52.0023C31.0817 49.6232 32.3414 47.9239 34.5025 47.3907C34.8891 47.295 35.3063 47.2869 35.7092 47.2869C38.2 47.2787 40.6909 47.2706 43.1817 47.2869C46.0266 47.3032 47.8051 49.1165 47.8072 51.986C47.8092 61.0018 47.8173 70.0196 47.7929 79.0353C47.7929 79.7557 47.9455 79.9898 48.7087 79.9735C51.1181 79.9186 53.5275 79.9165 55.9369 79.9735C56.7204 79.9918 56.8526 79.7252 56.8526 79.019C56.8323 67.4308 56.8384 55.8406 56.8384 44.2525C56.8384 39.0811 56.8526 33.9098 56.8323 28.7364C56.8241 26.7562 57.5181 25.2115 59.3231 24.2632C59.9112 23.9538 60.5543 23.8358 61.2014 23.8317C63.8814 23.8134 66.5656 23.73 69.2395 23.8521C71.9216 23.9742 73.4967 25.7366 73.5984 28.4373C73.6086 28.7079 73.6005 28.9786 73.6005 29.2493C73.6005 45.8195 73.6066 62.3918 73.5801 78.962C73.5801 79.7863 73.7816 80.0488 74.6017 79.9694C75.3791 79.8921 76.1707 79.943 76.9562 79.9552C78.0266 79.9715 78.7184 80.5963 78.7368 81.5446C78.7571 82.5256 78.0489 83.1972 76.9399 83.1972C70.957 83.2033 64.9722 83.2013 58.9894 83.2013C52.4367 83.2013 45.8862 83.2013 39.3335 83.2013V83.1972ZM60.1432 53.8136C60.1432 62.2595 60.1493 70.7054 60.1289 79.1533C60.1289 79.7741 60.2653 79.9755 60.9226 79.9674C63.7919 79.9287 66.6612 79.9389 69.5305 79.9613C70.0657 79.9654 70.2794 79.8697 70.2794 79.2673C70.2631 62.347 70.2672 45.4288 70.2631 28.5085C70.2631 27.4482 69.9192 27.1246 68.8366 27.1226C66.5086 27.1165 64.1806 27.1205 61.8526 27.1226C60.4016 27.1226 60.1452 27.3749 60.1452 28.8016C60.1452 37.1396 60.1452 45.4776 60.1452 53.8157L60.1432 53.8136ZM44.5614 65.7376C44.5614 61.1911 44.5654 56.6445 44.5593 52.1C44.5593 50.94 44.1524 50.5391 42.9944 50.537C40.64 50.5309 38.2855 50.5309 35.9331 50.537C34.765 50.5391 34.3641 50.9217 34.3621 52.0898C34.356 61.1544 34.3621 70.221 34.3478 79.2856C34.3478 79.8229 34.5106 79.9654 35.0397 79.9613C37.9355 79.9369 40.8292 79.9287 43.725 79.9654C44.3864 79.9735 44.5838 79.8249 44.5797 79.133C44.5451 74.6679 44.5614 70.2027 44.5614 65.7376ZM8.63999 72.3641C8.63999 74.6373 8.6583 76.9106 8.62778 79.1818C8.61964 79.7578 8.72749 79.9735 9.36851 79.9654C12.2622 79.9267 15.158 79.9328 18.0518 79.9613C18.6175 79.9674 18.7803 79.8127 18.7762 79.2429C18.7538 74.6984 18.7681 70.1518 18.7599 65.6073C18.7599 64.5531 18.3957 64.1909 17.3456 64.1868C14.9118 64.1766 12.4759 64.1766 10.0421 64.1868C9.02664 64.1909 8.64202 64.5959 8.63999 65.6277C8.63388 67.8725 8.63999 70.1193 8.63999 72.3641Z" fill="white"/>
<path d="M10.0257 50.8972C9.14453 50.883 8.44247 50.1727 8.44043 49.2915C8.4384 48.398 9.22186 47.6166 10.0908 47.645C10.9251 47.6715 11.6923 48.451 11.6984 49.2793C11.7045 50.1564 10.9231 50.9135 10.0257 50.8993V50.8972Z" fill="white"/>
</svg>
