<svg width="87" height="87" viewBox="0 0 87 87" fill="none" xmlns="http://www.w3.org/2000/svg">
<path d="M65.7768 0C65.9899 0.231311 66.3029 0.176885 66.5659 0.258524C68.7679 0.956992 70.2601 2.39021 71.0153 4.56499C71.1604 4.97999 71.3532 5.19315 71.7795 5.33829C73.8976 6.05717 75.3285 7.49492 76.0293 9.62208C76.1608 10.0189 76.3649 10.2072 76.7481 10.3342C78.8821 11.0349 80.2904 12.484 81.0274 14.593C81.1453 14.9309 81.261 15.1599 81.6465 15.2983C84.7715 16.4253 86.3385 18.6681 86.3407 21.9949C86.3453 36.8465 86.3407 51.698 86.3407 66.5518C86.3407 68.1074 86.3498 69.6631 86.3407 71.2188C86.3113 75.2849 83.5038 78.0855 79.4332 78.0878C65.6271 78.0946 51.8233 78.0923 38.0172 78.0878C34.7085 78.0878 32.4521 76.5072 31.3137 73.3913C31.1935 73.0625 31.037 72.8924 30.6946 72.7903C28.2885 72.0715 25.8484 71.4297 23.7054 70.0418C23.465 69.8876 23.2927 69.9352 23.1135 70.128C22.9412 70.3139 22.762 70.4954 22.5738 70.6677C21.7982 71.373 21.1111 72.0238 21.4445 73.3006C21.6916 74.2508 21.2199 75.1987 20.5782 75.9561C20.0679 76.5593 19.5033 77.1195 18.9227 77.6569C18.3603 78.1763 17.6709 78.1604 17.1652 77.6842C16.6346 77.1852 16.6141 76.4641 17.1516 75.8654C17.5462 75.4232 17.9975 75.0309 18.4011 74.5955C19.1518 73.7859 19.179 72.8924 18.4193 72.1032C17.2423 70.8809 16.0427 69.679 14.8203 68.502C14.0811 67.7922 13.1286 67.7945 12.3939 68.5224C9.30064 71.5884 6.21876 74.6703 3.15049 77.7635C2.34544 78.5754 2.38172 79.4666 3.20265 80.3079C4.32972 81.46 5.47267 82.5984 6.62469 83.7277C7.51818 84.6008 8.38447 84.5963 9.29157 83.705C10.5638 82.4578 11.8156 81.1878 13.0764 79.9292C13.217 79.7886 13.3486 79.6412 13.4982 79.5097C14.1037 78.979 14.809 78.97 15.3193 79.4802C15.8272 79.9882 15.8499 80.7229 15.2875 81.299C13.7817 82.8342 12.2873 84.3831 10.7134 85.8435C9.12829 87.3153 6.74034 87.2994 5.15519 85.8277C3.76732 84.5396 2.42708 83.1925 1.13219 81.8115C-0.33958 80.2376 -0.403077 77.8043 1.09818 76.2555C4.28664 72.965 7.5522 69.747 10.8132 66.5291C11.7838 65.5721 13.0288 65.2909 14.3487 65.5381C14.868 65.6356 15.1877 65.5154 15.5188 65.1435C15.986 64.6151 16.7479 64.2001 16.9248 63.6014C17.1085 62.9823 16.3715 62.3814 16.0767 61.7532C13.4597 56.1722 13.2873 50.5346 15.6708 44.8403C15.9179 44.2529 16.0336 43.6769 16.0336 43.042C16.0223 35.1774 16.054 27.3128 16.0087 19.4483C15.995 16.8267 16.8795 14.6746 18.7436 12.8468C21.8141 9.83525 24.8688 6.81006 27.8622 3.72138C29.5675 1.96387 31.3591 0.433141 33.8627 0.00226775H65.7768V0ZM18.5735 40.0009C18.925 39.6176 19.1109 39.409 19.306 39.2072C24.8892 33.4652 31.6403 31.3902 39.3552 33.429C50.9003 36.4836 57.0142 48.4574 53.0161 59.7508C52.7667 60.4538 52.88 60.5876 53.6012 60.5808C57.2228 60.5513 60.8421 60.5808 64.4637 60.5626C67.0989 60.5513 68.8246 58.821 68.8246 56.1927C68.8292 39.7582 68.8292 23.3238 68.8246 6.88943C68.8246 4.26111 67.0921 2.54669 64.4524 2.54442C55.0888 2.53988 45.7276 2.53988 36.364 2.54442C34.4954 2.54442 33.4205 3.61253 33.4046 5.49023C33.391 7.12982 33.4091 8.77167 33.4 10.4113C33.3774 14.5998 30.6266 17.3483 26.4244 17.3823C24.8688 17.3959 23.3131 17.3823 21.7574 17.3846C19.5713 17.3891 18.5803 18.3688 18.578 20.5232C18.578 26.6892 18.578 32.8552 18.578 39.0235C18.578 39.2707 18.578 39.5179 18.578 39.9986L18.5735 40.0009ZM44.0562 70.5589H44.8681C54.599 70.5589 64.3322 70.5589 74.0631 70.5589C77.2176 70.5589 78.8277 68.9556 78.8277 65.8215C78.8277 54.0247 78.8277 42.2278 78.8277 30.431C78.8277 30.1203 78.8095 29.8051 78.8481 29.4989C78.9275 28.8481 79.3447 28.4716 79.9638 28.4081C80.5897 28.3424 81.0705 28.6485 81.2655 29.2631C81.3562 29.5511 81.3676 29.8731 81.3676 30.1815C81.3721 42.1485 81.3698 54.1154 81.3744 66.0801C81.3744 66.7921 81.3086 67.4906 81.1204 68.1777C80.2836 71.2233 77.7165 73.101 74.3262 73.1033C63.2641 73.1101 52.2043 73.1056 41.1422 73.1056C38.9923 73.1056 36.8425 73.1033 34.6927 73.1124C34.484 73.1124 34.1983 72.9944 34.0849 73.2484C33.9806 73.4797 34.2119 73.6634 34.3389 73.8358C35.2732 75.1034 36.5568 75.557 38.1034 75.5547C51.7666 75.5389 65.4321 75.5048 79.0953 75.5797C81.812 75.5956 83.8462 73.8018 83.8326 70.8696C83.7623 54.6597 83.7986 38.4498 83.7986 22.2399C83.7986 21.8725 83.8031 21.5028 83.7691 21.1377C83.633 19.7022 82.5649 18.3189 81.3744 18.0649C81.3744 20.1104 81.3789 22.1446 81.3744 24.1811C81.3698 25.2628 80.9253 25.8229 80.0953 25.8274C79.2563 25.832 78.8345 25.2923 78.8322 24.1879C78.8277 21.7546 78.8299 19.3213 78.8322 16.8902C78.8322 15.5795 78.4127 14.4479 77.4126 13.5702C77.1427 13.3344 76.8343 12.933 76.4942 13.0736C76.1744 13.2074 76.3604 13.6836 76.3604 14.0034C76.3536 29.5919 76.3536 45.1782 76.3536 60.7667C76.3536 61.4448 76.374 62.1274 76.2288 62.7941C75.5349 65.9825 72.9383 68.0734 69.5616 68.0848C62.4046 68.1052 55.2476 68.0916 48.0906 68.0961C47.7844 68.0961 47.4329 67.985 47.1789 68.1891C46.1766 68.9919 45.1153 69.7153 44.063 70.5634L44.0562 70.5589ZM51.6985 52.8409C51.7076 43.0918 43.8771 35.2568 34.1257 35.259C24.4175 35.259 16.5733 43.0714 16.5484 52.7615C16.5234 62.4857 24.3721 70.3865 34.0872 70.4137C43.8 70.4409 51.6872 62.5696 51.6963 52.8409H51.6985ZM71.3713 7.89858C71.3713 8.40656 71.3713 8.74672 71.3713 9.08462C71.3713 24.5303 71.2897 39.976 71.4212 55.4216C71.4597 59.9798 68.5185 63.3565 63.6315 63.1479C59.8194 62.9846 55.9959 63.1116 52.177 63.1206C51.8868 63.1206 51.5421 62.9891 51.3198 63.3179C50.8391 64.0277 50.3606 64.7398 49.8413 65.5109C50.0907 65.5267 50.229 65.5426 50.3674 65.5426C56.7602 65.5426 63.153 65.5449 69.548 65.5381C69.9404 65.5381 70.344 65.5063 70.7227 65.4111C72.7115 64.9076 73.8046 63.3451 73.8069 61.0184C73.8091 44.6951 73.8069 28.3741 73.8069 12.0508C73.8069 11.7129 73.8114 11.3682 73.757 11.0349C73.5347 9.63342 72.7796 8.62427 71.3758 7.89858H71.3713ZM30.8375 4.74868C27.4835 8.09815 24.0569 11.5179 20.7324 14.8379C22.6078 14.8379 24.6669 14.8719 26.7238 14.8288C29.0233 14.7812 30.7558 13.2006 30.8239 11.0372C30.8919 8.87145 30.8398 6.70348 30.8398 4.74868H30.8375ZM19.9205 69.8944C20.2856 69.4704 20.6145 69.0463 20.9909 68.6721C21.2653 68.4 21.2222 68.2503 20.9455 68.0145C20.4739 67.6153 20.0226 67.1822 19.5917 66.7377C18.4692 65.5812 18.4873 65.5857 17.4056 66.8216C17.1539 67.1096 17.1833 67.2684 17.4305 67.5087C18.1199 68.1755 18.7912 68.8626 19.4715 69.5361C19.5668 69.6314 19.6824 69.7039 19.9205 69.8922V69.8944Z" fill="white"/>
<path d="M45.7659 30.549C43.2193 30.5672 43.1626 30.5105 43.1558 27.9524C43.149 25.721 43.1376 23.4872 43.1399 21.2558C43.1399 19.945 43.5526 19.5436 44.8634 19.5368C45.428 19.5345 45.9927 19.5323 46.5597 19.5368C48.9975 19.5595 50.5963 20.7954 51.2426 23.1539C51.5691 24.3512 51.585 25.5554 51.2788 26.7551C50.6099 29.3811 48.934 30.5286 45.7659 30.549ZM45.6888 24.9885H45.7002C45.7002 25.8049 45.6934 26.6213 45.7047 27.4376C45.707 27.6667 45.6253 27.9275 46.0154 28.0114C47.0767 28.2336 48.1607 27.7325 48.5984 26.7233C48.9657 25.8752 49.0406 24.9953 48.8387 24.0814C48.5054 22.5733 47.7321 21.986 46.2127 22.0721C45.8 22.0948 45.6775 22.24 45.6843 22.6255C45.7002 23.4124 45.6888 24.2016 45.6888 24.9907V24.9885Z" fill="white"/>
<path d="M33.0123 23.9022C33.0123 22.9407 33.001 21.9814 33.0146 21.0199C33.0282 20.1105 33.5384 19.5345 34.2959 19.5436C35.0465 19.5526 35.5477 20.1309 35.5545 21.0471C35.5658 22.7978 35.5545 24.5508 35.559 26.3015C35.5613 27.3197 36.1781 27.9773 37.1328 28.0045C38.1782 28.0318 38.8903 27.3628 38.8994 26.2992C38.913 24.5757 38.8971 22.8522 38.9062 21.1287C38.913 20.1332 39.387 19.5481 40.158 19.5436C40.9268 19.539 41.4347 20.1354 41.4438 21.1151C41.4574 22.8953 41.4778 24.6755 41.4393 26.4534C41.3894 28.8663 39.523 30.5966 37.0807 30.549C34.7562 30.5013 33.0236 28.7212 33.0123 26.3559C33.0078 25.5372 33.0123 24.7163 33.0123 23.8976V23.9022Z" fill="white"/>
<path d="M31.9444 29.231C31.8877 29.9091 31.5748 30.3604 30.9602 30.5123C30.3366 30.6665 29.6925 30.4284 29.5723 29.8433C29.273 28.392 28.3001 28.3761 27.1844 28.494C27.0166 28.5121 26.842 28.5189 26.6764 28.494C25.9326 28.3783 25.504 28.6142 25.2749 29.4056C24.996 30.374 24.2998 30.7368 23.5787 30.4828C22.7986 30.2062 22.5468 29.4918 22.9165 28.5189C23.903 25.9088 24.903 23.3031 25.8895 20.6929C26.1412 20.0239 26.5744 19.5681 27.3091 19.5545C28.0416 19.5409 28.511 19.9627 28.765 20.6362C29.7719 23.2986 30.7788 25.9609 31.7811 28.6255C31.8605 28.8342 31.8991 29.0609 31.9444 29.2333V29.231ZM27.3341 24.1059C27.105 24.6887 26.9349 25.0992 26.783 25.5164C26.7308 25.6616 26.6492 25.8906 26.8873 25.9156C27.2139 25.9496 27.6039 25.9995 27.8647 25.8589C28.0824 25.7409 27.833 25.4076 27.7559 25.1808C27.6493 24.8679 27.5155 24.564 27.3341 24.1059Z" fill="white"/>
<path d="M59.7917 25.9659C59.7917 24.8638 59.7759 23.7594 59.7985 22.6572C59.8076 22.215 59.6511 22.0313 59.2112 22.0767C59.0434 22.0948 58.871 22.0858 58.7032 22.0722C57.9685 22.0132 57.4537 21.5075 57.465 20.8272C57.4786 20.0969 57.8959 19.598 58.5921 19.5708C60.2294 19.5073 61.8713 19.5141 63.5109 19.564C64.232 19.5867 64.7037 20.2126 64.6402 20.8997C64.5722 21.6231 64.1413 22.113 63.4292 22.0495C62.4359 21.961 62.2885 22.3738 62.318 23.2469C62.3861 25.1404 62.3362 27.0363 62.3407 28.9298C62.3407 29.5943 62.191 30.1726 61.5084 30.4538C60.692 30.7894 59.8416 30.2225 59.8099 29.2723C59.7713 28.1701 59.8008 27.0657 59.8008 25.9636C59.7985 25.9636 59.7963 25.9636 59.794 25.9636L59.7917 25.9659Z" fill="white"/>
<path d="M52.9658 25.0362C52.9658 23.7073 52.9522 22.3783 52.9704 21.0494C52.984 20.1219 53.4829 19.5505 54.2267 19.5459C54.9705 19.5414 55.4944 20.1151 55.5012 21.0358C55.5171 23.7231 55.5193 26.4081 55.5012 29.0954C55.4944 30.0229 54.966 30.5717 54.1995 30.5491C53.4647 30.5287 52.9885 30.0003 52.9749 29.109C52.9522 27.7529 52.9681 26.3945 52.9681 25.0362H52.9658Z" fill="white"/>
<path d="M48.7316 52.7816C48.7679 60.8163 42.2663 67.3792 34.2339 67.4109C26.104 67.4449 19.6023 61.0249 19.5434 52.9064C19.4844 44.8377 26.0087 38.234 34.0661 38.2091C42.137 38.1819 48.6953 44.6994 48.7316 52.7816ZM22.0855 52.8565C22.1105 59.5645 27.4873 64.8915 34.2067 64.8665C40.8466 64.8393 46.2189 59.4239 46.1895 52.7862C46.1577 46.1077 40.7219 40.7172 34.0524 40.7535C27.4238 40.7898 22.0628 46.212 22.0855 52.8565Z" fill="white"/>
<path d="M32.4811 51.9768C33.497 50.1807 34.454 48.4595 35.4405 46.7518C36.3703 45.144 38.0666 44.3571 39.7334 44.7267C42.4252 45.3209 43.7133 48.1601 42.3571 50.6252C40.7652 53.5211 39.1165 56.3853 37.4905 59.263C37.13 59.9025 36.7898 60.5557 36.3998 61.177C34.8985 63.5695 31.7123 63.8144 29.9208 61.6238C28.3288 59.6758 26.7958 57.6779 25.2968 55.6596C23.9951 53.9066 24.358 51.5232 26.0452 50.2011C27.7528 48.8631 30.1634 49.1421 31.5876 50.8497C31.8711 51.1898 32.1409 51.5436 32.4833 51.9768H32.4811ZM28.576 51.9201C27.9342 51.9178 27.5147 52.165 27.2494 52.6525C26.9228 53.2467 27.0521 53.7978 27.4489 54.3103C28.8867 56.1653 30.3131 58.0294 31.769 59.8708C32.5673 60.88 33.6558 60.796 34.3248 59.6894C34.7624 58.9637 35.1593 58.2131 35.5766 57.4761C37.0778 54.8182 38.5904 52.1672 40.0781 49.5026C40.6835 48.4186 40.1665 47.2825 39.0598 47.2009C38.3478 47.1487 37.9101 47.5456 37.5813 48.1352C36.3657 50.3031 35.1434 52.4711 33.9075 54.6278C33.2226 55.8229 32.2951 55.8773 31.4356 54.791C30.8574 54.0585 30.2904 53.317 29.7167 52.58C29.4083 52.1831 29.0341 51.9019 28.5805 51.9201H28.576Z" fill="white"/>
</svg>
