<svg width="88" height="88" viewBox="0 0 88 88" fill="none" xmlns="http://www.w3.org/2000/svg">
<path d="M0 83.8135C0 65.378 0 46.9425 0 28.507C0.268324 28.2687 0.51779 28.0036 0.808289 27.7953C4.68347 25.0307 8.55643 22.2638 12.4527 19.5315C12.9405 19.1896 13.078 18.8254 13.0725 18.2662C13.0492 15.7645 13.0603 13.2616 13.0625 10.7599C13.0647 8.41633 14.1613 7.30136 16.4764 7.29913C20.4957 7.29579 24.5151 7.28465 28.5344 7.31027C29.2784 7.31472 29.8871 7.13984 30.4925 6.69318C32.6125 5.12932 34.7713 3.61671 36.909 2.07624C38.4812 0.942327 40.2808 0.398762 42.1391 0C43.0449 0 43.9519 0 44.8578 0C44.9875 0.0490099 45.1139 0.122527 45.247 0.141462C47.1053 0.406561 48.7751 1.12946 50.2964 2.22104C52.4374 3.75706 54.5851 5.28415 56.7162 6.83353C57.1752 7.16769 57.6409 7.30915 58.2086 7.30581C62.2855 7.28798 66.3614 7.29467 70.4384 7.2969C72.8666 7.29801 73.9333 8.38403 73.9344 10.849C73.9355 13.3797 73.9443 15.9115 73.9255 18.4422C73.9222 18.8855 74.0464 19.1651 74.4178 19.4268C78.3074 22.1714 82.177 24.9427 86.0699 27.6839C86.7064 28.1317 87.0113 28.6373 87.0113 29.4449C86.9935 47.1909 86.9991 64.937 86.9969 82.683C86.9969 85.6046 85.1973 87.3946 82.2669 87.3946C56.4201 87.3968 30.5745 87.3957 4.72783 87.3913C4.30649 87.3913 3.87518 87.3701 3.46493 87.2854C1.56227 86.89 0.548845 85.5812 0 83.8113V83.8135ZM43.5151 10.2108C34.6249 10.2108 25.7336 10.2141 16.8434 10.2041C16.2791 10.2041 15.9265 10.1996 15.9287 10.9815C15.962 20.2255 15.9575 29.4705 15.9509 38.7145C15.9509 39.1444 16.054 39.4474 16.3999 39.7347C23.5715 45.7039 30.7198 51.6998 37.9013 57.6568C41.2299 60.4169 45.6184 60.4191 49.0046 57.7381C49.9371 56.9996 50.8397 56.221 51.7533 55.458C57.9591 50.2785 64.1583 45.0913 70.3774 39.9285C70.8608 39.5276 71.056 39.1333 71.0549 38.4984C71.0338 29.3959 71.0261 20.2934 71.0627 11.1921C71.066 10.3277 70.7965 10.1918 70.0182 10.1941C61.1845 10.2219 52.3498 10.2119 43.5162 10.2119L43.5151 10.2108ZM5.55275 84.415H81.4064C81.137 84.1711 80.974 84.014 80.801 83.8692C71.2234 75.875 61.6403 67.8876 52.0804 59.8722C51.5559 59.4322 51.2943 59.6216 50.8862 59.9469C46.3746 63.5346 40.609 63.5368 36.114 59.9402C35.6361 59.5581 35.3567 59.508 34.8489 59.9346C27.9667 65.7155 21.0601 71.4664 14.1591 77.2262C11.3306 79.5864 8.50432 81.9489 5.55275 84.415ZM2.92052 82.801C3.30415 82.4914 3.56471 82.2875 3.81973 82.0748C13.4007 74.0762 22.9772 66.0731 32.5703 58.09C33.097 57.6523 33.1369 57.4607 32.5836 56.9996C22.9694 48.9987 13.373 40.9745 3.76873 32.9614C3.52258 32.7564 3.3097 32.4746 2.92052 32.3977V82.801ZM84.0764 32.2997C83.7238 32.576 83.4787 32.7564 83.247 32.9513C79.9428 35.7193 76.6453 38.4961 73.3356 41.2574C67.0212 46.5271 60.7033 51.7923 54.3756 57.0441C53.9298 57.4139 53.83 57.5922 54.3478 58.0221C64.0286 66.0742 73.6904 74.1486 83.3623 82.2118C83.563 82.3789 83.7182 82.6596 84.0775 82.6328V32.2997H84.0764ZM73.9776 36.8187C74.1706 36.6995 74.2726 36.6527 74.3557 36.5836C77.1432 34.2601 79.9207 31.9255 82.7214 29.6198C83.1849 29.2388 82.9931 29.0873 82.6372 28.8356C79.9096 26.9042 77.1897 24.9605 74.4655 23.0235C74.3346 22.9299 74.216 22.7818 73.9776 22.8542V36.8187ZM13.0148 36.8888V22.6893C9.9036 24.9037 6.89881 27.0434 3.83304 29.2255C6.90879 31.7918 9.90027 34.2891 13.0148 36.8888ZM52.0238 7.24455C50.3762 5.97809 48.8793 4.54009 46.9977 3.67462C45.5563 3.01188 44.0351 2.81919 42.4473 2.98738C39.3483 3.31597 37.3303 5.54257 34.9797 7.24455H52.0238Z" fill="white"/>
<path d="M46.4722 39.4328C44.9809 40.7828 43.2933 41.6182 41.3152 41.8855C37.3336 42.4235 33.9851 39.7669 33.6458 35.7537C33.2533 31.1089 36.0286 26.0932 40.1654 23.9713C42.7345 22.6536 45.9455 23.1738 48.0167 25.2344C48.2118 25.4282 48.3349 25.7067 48.6864 25.8192C48.7607 25.4928 48.8339 25.1754 48.9037 24.8579C49.1255 23.8387 49.7619 23.3108 50.5902 23.46C51.4772 23.6204 51.9329 24.3823 51.7422 25.4015C51.0026 29.3657 50.2453 33.3255 49.2618 37.2385C48.9569 38.4515 49.3151 38.9104 50.5824 38.9672C52.0659 39.034 53.3122 38.5127 54.258 37.3688C57.0022 34.0495 57.5178 30.2802 56.1052 26.316C54.6937 22.354 51.8342 19.8533 47.6608 19.1271C39.6609 17.7348 31.3883 23.0022 29.1508 30.8271C27.3846 37.0023 30.8905 43.5017 37.032 45.3407C41.5226 46.6851 46.0752 47.1118 50.6855 45.9556C53.6482 45.2126 56.1973 43.7724 58.1742 41.3932C58.6854 40.7772 59.3096 40.5199 60.0525 40.8674C60.7255 41.1827 60.9517 41.7775 60.8253 42.5037C60.7632 42.8568 60.527 43.1096 60.3064 43.3681C57.6143 46.5292 54.146 48.2947 50.1278 49.0499C44.9653 50.02 39.8805 49.5589 35.0085 47.6999C26.869 44.5955 23.404 35.0342 27.5753 27.0667C30.7109 21.0764 35.5795 17.1511 42.3919 16.1553C49.6166 15.0994 55.5697 18.0266 58.3339 24.1328C60.7299 29.4248 60.2199 34.5474 56.5254 39.1777C55.2248 40.8073 53.4996 41.7084 51.4118 41.871C49.3062 42.0348 47.5388 41.4845 46.4711 39.435L46.4722 39.4328ZM40.3706 39.0485C41.7332 38.9761 43.0083 38.6052 44.0317 37.6796C45.7515 36.1246 47.1773 34.4171 47.551 31.9532C47.7306 30.7692 47.6208 29.7801 47.0432 28.7999C46.7848 28.3621 46.4988 27.9333 46.175 27.5434C45.0441 26.1823 43.1547 25.7746 41.5636 26.5209C38.489 27.9634 36.1395 32.2116 36.5453 35.5967C36.7992 37.7152 38.2894 39.0597 40.3706 39.0474V39.0485Z" fill="white"/>
</svg>
