<svg width="87" height="87" viewBox="0 0 87 87" fill="none" xmlns="http://www.w3.org/2000/svg">
<path d="M86.9153 3.04828C86.6885 4.69462 86.5003 6.34776 86.2327 7.9873C84.3233 19.6183 80.4955 30.4623 73.0824 39.8188C71.0211 42.4221 68.674 44.7533 66.1455 46.8985C65.7442 47.2387 65.7079 47.4768 65.9573 47.9439C69.1502 53.9488 68.1706 59.7404 63.066 64.2395C58.5647 68.208 53.2311 70.2444 47.2467 70.5959C46.3872 70.6457 45.657 70.4417 45.2828 69.5935C44.9109 68.7522 45.2443 68.0855 45.8362 67.4551C47.9428 65.2101 48.8227 62.5093 48.7002 59.4615C48.6526 58.2596 48.2717 58.0283 47.1446 58.4796C44.8883 59.3844 42.5911 60.1622 40.2463 60.804C39.2644 61.0716 38.3029 61.1736 37.3255 60.8811C37.0194 60.7904 36.8176 60.745 36.6475 61.1033C34.3866 65.8541 30.2934 68.0946 25.4315 69.3169C23.1502 69.8906 20.8463 70.2965 18.5173 70.5686C17.091 70.7342 16.1907 69.9496 16.3336 68.5935C16.7372 64.7588 17.4878 61.0081 18.9754 57.4206C20.2816 54.2685 22.5153 52.0099 25.4859 50.4407C25.9939 50.1708 26.198 49.9554 25.9939 49.3635C25.7014 48.5086 25.8465 47.6401 26.0801 46.7761C26.7377 44.3474 27.5337 41.9663 28.4884 39.6374C28.8716 38.7031 28.5995 38.27 27.5677 38.2178C24.5222 38.0614 21.8214 38.9185 19.5401 40.9889C19.4358 41.0842 19.3337 41.1817 19.2271 41.2769C18.6443 41.7985 17.9867 41.9414 17.2701 41.6035C16.5807 41.2792 16.2973 40.6919 16.3131 39.9481C16.3834 36.5352 17.2293 33.3015 18.6058 30.197C19.7487 27.6187 21.225 25.2512 23.216 23.2375C27.6652 18.7384 33.1915 17.8812 38.7837 20.861C39.405 21.192 39.7043 21.1399 40.1579 20.6002C46.4983 13.0851 54.5101 8.00771 63.6579 4.62205C70.2909 2.16615 77.1393 0.655867 84.1872 0.0299858C85.3392 -0.0720601 86.328 0.0345212 86.9198 1.1797V3.04601L86.9153 3.04828ZM79.1031 22.0515C78.9761 21.9018 78.8469 21.7227 78.6926 21.5685C74.2344 17.1057 69.7716 12.6497 65.3201 8.18005C65.014 7.87165 64.7623 7.82402 64.3654 7.97596C59.381 9.88989 54.6575 12.2936 50.4078 15.55C42.7725 21.4007 37.2756 28.9521 33.0963 37.5353C32.8627 38.0137 32.9602 38.2768 33.3117 38.6237C38.3233 43.6127 43.3236 48.6106 48.3102 53.6245C48.6844 54.0009 48.9701 54.0259 49.4078 53.79C50.9249 52.9737 52.485 52.2367 53.9794 51.3795C65.5877 44.717 74.1823 35.4308 78.8424 22.7341C78.9195 22.5232 79.0011 22.3123 79.1008 22.0492L79.1031 22.0515ZM20.2136 36.3697C21.5107 35.7687 22.7171 35.2948 24.0074 35.0952C26.0483 34.7777 28.0938 34.4829 30.0757 35.3878C30.4386 35.5533 30.4476 35.2245 30.527 35.0635C32.3888 31.3082 34.5635 27.7479 37.0852 24.4008C37.3822 24.0085 37.2802 23.877 36.8947 23.6684C33.4818 21.8361 29.6744 22.1739 26.6787 24.6684C23.5017 27.3125 21.7125 30.8297 20.5401 34.7074C20.3882 35.2109 20.1773 35.7098 20.2113 36.3697H20.2136ZM50.5484 66.675C50.7457 66.6886 50.8341 66.7158 50.909 66.6977C55.2198 65.6387 59.118 63.8223 62.0819 60.4026C64.7215 57.3571 65.1002 53.6426 63.2724 50.0688C63.0207 49.5767 62.8415 49.5563 62.4175 49.8851C61.0093 50.9736 59.5307 51.9623 58.025 52.9124C56.0657 54.1483 54.0429 55.2708 51.9793 56.323C51.7684 56.4296 51.2673 56.4092 51.5734 56.924C52.0723 57.7607 52.0836 58.7064 52.104 59.6339C52.1585 62.0716 51.6233 64.3915 50.5462 66.6773L50.5484 66.675ZM20.0458 66.2169C19.9981 66.929 20.0072 66.9676 20.658 66.8564C23.445 66.378 26.1912 65.7498 28.7718 64.5366C31.205 63.3937 32.7425 61.4389 33.856 59.0737C34.0283 58.7086 33.9761 58.4637 33.6904 58.1803C32.0214 56.5317 30.3615 54.874 28.7151 53.2027C28.4249 52.9079 28.1709 52.8943 27.8171 53.0621C25.7558 54.0304 23.9462 55.3139 22.8032 57.3344C21.2204 60.1305 20.5923 63.2349 20.048 66.2169H20.0458ZM68.8577 6.45888C72.7219 10.323 76.6132 14.2144 80.4524 18.0536C81.813 13.6588 82.7473 8.98962 83.3256 4.24335C83.3959 3.65828 83.2348 3.51542 82.6611 3.58572C77.9148 4.16398 73.2457 5.096 68.86 6.46114L68.8577 6.45888ZM45.1196 55.6246C40.498 51.003 35.881 46.386 31.2821 41.7872C30.5134 43.6966 29.8444 45.7874 29.2843 47.9167C29.121 48.5381 29.3592 49.0415 29.7719 49.4565C32.323 52.0258 34.881 54.5837 37.4503 57.1349C37.8652 57.5476 38.3687 57.7857 38.99 57.6224C41.1194 57.0623 43.2102 56.3933 45.1196 55.6246Z" fill="white"/>
<path d="M2.04267 86.9005C0.53012 85.9254 0.421273 84.9072 1.70478 83.6237C5.27866 80.0476 8.85479 76.4714 12.4332 72.8975C12.6509 72.6798 12.8777 72.4553 13.1339 72.2875C13.8097 71.8453 14.6714 71.9519 15.227 72.5166C15.7735 73.0721 15.8756 73.9611 15.4288 74.6187C15.2406 74.8954 14.9911 75.1335 14.753 75.3739C11.3198 78.8117 7.88649 82.2495 4.44414 85.6782C4.00874 86.1113 3.52347 86.4923 3.06313 86.8982H2.04494L2.04267 86.9005Z" fill="white"/>
<path d="M15.6216 86.9005C14.1091 85.9254 14.0002 84.9072 15.2837 83.6237C18.8576 80.0476 22.4337 76.4714 26.0121 72.8975C26.2298 72.6798 26.4566 72.4553 26.7129 72.2875C27.3886 71.8453 28.2504 71.9519 28.806 72.5166C29.3525 73.0721 29.4545 73.9611 29.0078 74.6187C28.8196 74.8954 28.5701 75.1335 28.332 75.3739C24.8987 78.8117 21.4654 82.2495 18.0231 85.6782C17.5877 86.1113 17.1024 86.4923 16.6421 86.8982H15.6239L15.6216 86.9005Z" fill="white"/>
<path d="M1.87939 72.485C1.06302 72.4804 0.568645 72.1902 0.242098 71.6391C-0.0844493 71.0835 -0.0799051 70.503 0.251177 69.9497C0.380435 69.7343 0.564126 69.5483 0.741005 69.3692C4.41239 65.691 8.09057 62.0173 11.7574 58.3369C12.3175 57.7745 12.9298 57.4502 13.7303 57.7087C14.3471 57.9083 14.7122 58.3505 14.8483 58.9786C15.0115 59.7315 14.6374 60.2757 14.1362 60.7746C11.1769 63.7272 8.2221 66.6842 5.2673 69.6413C4.52803 70.3806 3.79103 71.1221 3.0495 71.8568C2.67986 72.2242 2.26263 72.5031 1.87712 72.485H1.87939Z" fill="white"/>
<path d="M41.2872 71.5075C41.3031 71.8114 41.0854 72.2241 40.7317 72.5801C39.1919 74.1199 37.6612 75.671 36.1078 77.1971C35.3323 77.9591 34.2869 77.9795 33.6111 77.2969C32.9127 76.5916 32.9399 75.6029 33.7222 74.8092C35.2507 73.2559 36.7949 71.7207 38.3392 70.1854C38.888 69.6412 39.5321 69.4303 40.2736 69.7614C40.9267 70.0539 41.2691 70.5709 41.2872 71.5075Z" fill="white"/>
<path d="M9.12708 52.1209C9.10894 51.6061 9.3153 51.1912 9.67133 50.8329C11.2338 49.275 12.7803 47.7012 14.3586 46.1592C15.0934 45.4403 16.1274 45.4426 16.7919 46.1002C17.479 46.7805 17.4948 47.7692 16.7533 48.5289C15.1931 50.1276 13.6035 51.6991 12.0138 53.2684C11.4877 53.7877 10.8528 53.9555 10.1453 53.6448C9.48311 53.3545 9.14976 52.8398 9.12935 52.1209H9.12708Z" fill="white"/>
<path d="M61.1727 34.1609C56.4673 34.1337 52.7392 30.3784 52.7482 25.6729C52.7573 20.997 56.5489 17.2031 61.2113 17.2031C65.8963 17.2031 69.765 21.1035 69.6969 25.7546C69.6289 30.4668 65.8532 34.1858 61.1704 34.1609H61.1727ZM61.2249 30.7684C64.0391 30.7616 66.2999 28.5075 66.3045 25.7024C66.309 22.9132 64.0413 20.6273 61.2407 20.6001C58.4175 20.5729 56.1203 22.8837 56.1384 25.7274C56.1566 28.5529 58.3993 30.773 61.2249 30.7662V30.7684Z" fill="white"/>
<path d="M53.3036 35.1747C53.2945 35.8346 53.0609 36.2428 52.714 36.5943C51.9815 37.3336 51.2581 38.0842 50.5007 38.8007C49.7025 39.5582 48.7002 39.5763 48.0154 38.8892C47.3282 38.2021 47.3509 37.1998 48.1106 36.4038C48.8703 35.6101 49.6481 34.8346 50.4463 34.0817C50.9837 33.5737 51.63 33.4445 52.3194 33.7733C52.9657 34.0817 53.2673 34.6191 53.3036 35.1747Z" fill="white"/>
<path d="M44.4149 44.1702C43.4738 44.1747 42.7482 43.4627 42.7346 42.5238C42.721 41.5895 43.4353 40.8389 44.3605 40.8117C45.3107 40.7845 46.1066 41.5623 46.0976 42.5125C46.0885 43.4377 45.3469 44.1679 44.4149 44.1724V44.1702Z" fill="white"/>
</svg>
