<svg width="87" height="87" viewBox="0 0 87 87" fill="none" xmlns="http://www.w3.org/2000/svg">
<path d="M0.00103802 12.4898C0.42559 10.7515 0.963285 9.06322 2.1103 7.64087C3.98497 5.31651 6.37865 3.96715 9.37231 3.77944C10.8941 3.68351 11.3155 4.09331 11.3176 5.60848C11.3228 9.27281 11.3435 12.9372 11.301 16.6015C11.2916 17.4211 11.4452 17.7037 12.3473 17.7016C24.9022 17.6672 37.456 17.6735 50.0109 17.6922C50.6628 17.6922 51.1091 17.4837 51.5586 17.029C56.6636 11.8735 61.7852 6.73468 66.9047 1.59377C69.0171 -0.528296 71.1399 -0.53038 73.2471 1.5823C74.3681 2.70537 75.4965 3.82219 76.604 4.95882C78.3853 6.78682 78.3915 9.01525 76.6009 10.8422C74.6173 12.8673 72.6066 14.8642 70.6094 16.8747C70.4133 17.0728 70.2254 17.2793 69.9918 17.5254C70.3022 17.7548 70.6167 17.6724 70.9032 17.6724C73.5325 17.6797 76.1629 17.6756 78.7922 17.6766C80.5921 17.6766 80.8931 17.9863 80.8931 19.8299C80.8931 27.8124 80.8931 35.7939 80.8931 43.7764C80.8931 44.109 80.8931 44.4406 80.8931 44.7733C80.9565 44.8119 81.0187 44.8504 81.0821 44.888C82.0194 43.9297 82.9567 42.9713 83.8941 42.0141C84.0923 41.8118 84.2947 41.6137 84.493 41.4103C84.9383 40.9536 85.4418 40.6762 86.0864 40.9536C86.7237 41.2278 86.8794 41.7711 86.8794 42.4166C86.8742 48.4105 86.8763 54.4034 86.8763 60.3973C86.8763 68.5779 86.8763 76.7585 86.8763 84.9402C86.8763 86.6785 86.568 86.9966 84.8771 86.9966C70.8804 86.9966 56.8837 86.9966 42.887 86.9955C42.5486 86.9955 42.1967 87.0226 41.8739 86.9434C40.9116 86.7088 40.6147 85.5711 41.3372 84.7827C42.1219 83.9266 42.9679 83.1268 43.7869 82.304C45.3429 80.7409 46.9 79.1778 48.6303 77.4405H47.4595C34.9897 77.4405 22.5199 77.4353 10.0501 77.4436C6.0413 77.4468 3.06424 75.7095 1.10446 72.1995C0.501365 71.1202 0.301027 69.9137 0 68.7385V12.4867L0.00103802 12.4898ZM45.3201 84.4397C45.8443 84.4397 46.1536 84.4397 46.463 84.4397C51.8929 84.4397 57.3217 84.4397 62.7516 84.4397C69.6804 84.4397 76.6082 84.4313 83.5359 84.4532C84.1505 84.4553 84.383 84.3281 84.3456 83.6649C84.2864 82.6169 84.3508 81.5626 84.3228 80.5125C84.3041 79.8128 84.629 78.9275 84.1775 78.4635C83.7581 78.0328 82.8862 78.3769 82.2156 78.3248C82.1876 78.3227 82.1585 78.3248 82.1305 78.3227C81.2731 78.2768 80.7831 77.8608 80.7416 77.1423C80.697 76.3758 81.1734 75.8513 82.0464 75.7804C82.609 75.7345 83.1778 75.746 83.7415 75.7689C84.1608 75.7867 84.3549 75.673 84.3383 75.2037C84.3072 74.2913 84.3134 73.3768 84.3363 72.4633C84.3466 72.0545 84.1992 71.9127 83.7986 71.9231C83.1778 71.9388 82.5519 71.9502 81.9353 71.8898C81.1952 71.8178 80.7395 71.4007 80.7416 70.6082C80.7426 69.8981 81.1983 69.4413 81.9903 69.385C82.5249 69.3475 83.0657 69.3433 83.6013 69.3715C84.1131 69.3986 84.3819 69.2891 84.3435 68.6801C84.2906 67.8313 84.3072 66.9752 84.3394 66.1242C84.357 65.655 84.2304 65.4579 83.7311 65.4892C83.1405 65.5267 82.5415 65.5257 81.9509 65.4798C81.2004 65.4204 80.7302 64.8948 80.7354 64.2045C80.7395 63.511 81.216 63.0021 81.9706 62.9542C82.5623 62.9156 83.1591 62.9187 83.7508 62.9469C84.1837 62.9677 84.3549 62.8363 84.3383 62.3765C84.3072 61.4682 84.303 60.5579 84.3394 59.6496C84.3601 59.1261 84.1255 59.0302 83.6823 59.051C83.1467 59.0761 82.6069 59.0729 82.0713 59.0479C81.2347 59.0093 80.7509 58.5484 80.7385 57.8164C80.726 57.0854 81.19 56.588 82.0194 56.5129C82.5249 56.4681 83.0408 56.4545 83.5443 56.5056C84.1795 56.5703 84.3529 56.3513 84.3456 55.7089C84.3114 52.4711 84.3332 49.2322 84.3228 45.9933C84.3228 45.7973 84.4515 45.5429 84.0685 45.3291C83.8889 45.5512 83.7124 45.8129 83.4934 46.033C76.4193 53.1489 69.341 60.2607 62.2627 67.3714C61.4655 68.1723 60.6922 68.3057 60.1275 67.7551C59.5078 67.1514 59.622 66.4089 60.4711 65.5455C60.6102 65.4037 60.7513 65.2639 60.8904 65.1232C66.5093 59.4786 72.125 53.8309 77.7521 48.1936C78.1289 47.8161 78.3583 47.4543 78.3573 46.8755C78.3375 38.2966 78.3355 29.7166 78.3573 21.1376C78.3593 20.4295 78.1611 20.2199 77.4552 20.2283C74.3453 20.2627 71.2343 20.2575 68.1234 20.2314C67.511 20.2262 67.076 20.4003 66.6369 20.8425C59.4715 28.0669 52.1928 35.1818 45.155 42.5292C42.2725 45.5376 39.1978 47.9141 35.1059 48.8391C34.4717 48.983 33.8717 49.2844 33.2562 49.5127C33.2697 49.5607 33.2832 49.6087 33.2967 49.6566C34.6222 49.6566 35.9478 49.6566 37.2723 49.6566C44.088 49.6566 50.9026 49.6545 57.7182 49.6598C58.7698 49.6598 59.3801 50.1603 59.3645 50.9643C59.349 51.7411 58.7625 52.2146 57.7608 52.2146C46.2232 52.2177 34.6855 52.2177 23.1479 52.2146C22.1275 52.2146 21.5649 51.7672 21.5421 50.982C21.5182 50.154 22.0985 49.6702 23.1541 49.6598C24.1434 49.6493 25.1368 49.6107 26.1229 49.6733C26.7997 49.7161 27.1017 49.4981 27.3249 48.8401C28.5446 45.2436 29.8183 41.6658 31.0815 38.0849C31.1936 37.7679 31.2943 37.4029 31.5175 37.1756C33.5198 35.1307 35.5263 33.0879 37.5806 31.0962C38.2875 30.411 39.3369 30.7447 39.6276 31.6436C39.8341 32.2839 39.504 32.7333 39.0878 33.1515C37.6283 34.6176 36.1834 36.1005 34.699 37.5406C34.3129 37.916 34.344 38.1089 34.7073 38.4645C36.3661 40.0922 38.0083 41.7367 39.6276 43.4052C40.0054 43.7941 40.2078 43.8118 40.6044 43.4124C49.0705 34.8825 57.549 26.3661 66.038 17.8591C66.4169 17.4795 66.4636 17.2741 66.0536 16.8747C64.4488 15.3137 62.8637 13.7307 61.3171 12.1123C60.8282 11.6013 60.578 11.5263 60.0258 12.0862C54.573 17.6161 49.085 23.1105 43.6022 28.6123C43.3437 28.8719 43.0832 29.1535 42.7707 29.3297C41.9309 29.8021 40.8763 29.1347 40.9282 28.1847C40.9552 27.6977 41.2552 27.3567 41.5822 27.0293C43.4651 25.144 45.3388 23.2503 47.2259 21.3691C47.5363 21.0594 47.8933 20.7966 48.2484 20.4963C47.8487 20.1709 47.5861 20.2502 47.3442 20.2502C35.6364 20.246 23.9295 20.2544 12.2217 20.2272C11.4411 20.2252 11.2999 20.4744 11.302 21.1939C11.3269 28.8646 11.3186 36.5343 11.3134 44.205C11.3134 44.571 11.303 44.9474 11.221 45.302C11.0643 45.9798 10.591 46.2999 9.91001 46.2415C9.2654 46.1862 8.8834 45.8004 8.80451 45.1539C8.76299 44.8171 8.76714 44.474 8.76611 44.1341C8.76403 31.8897 8.76507 19.6464 8.76403 7.40207C8.76403 6.38536 8.76092 6.38535 7.78725 6.66795C4.61194 7.58872 2.54939 10.5732 2.54835 14.2813C2.54523 29.7072 2.54627 45.133 2.55146 60.5589C2.55146 60.7977 2.46323 61.0594 2.68329 61.3493C4.15832 59.8623 5.86483 58.7883 7.91596 58.4056C8.57926 58.2815 8.79206 58.0427 8.78064 57.3659C8.74119 55.0374 8.75469 52.7068 8.77233 50.3782C8.7796 49.4272 9.26851 48.8693 10.02 48.8641C10.7591 48.8579 11.2999 49.4303 11.3072 50.3605C11.329 53.3147 11.3331 56.2699 11.3041 59.2241C11.2947 60.2137 10.8172 60.6548 9.81866 60.708C9.27889 60.7362 8.74846 60.7977 8.22633 60.926C3.92373 61.9886 0.847027 67.117 3.67875 71.5707C5.16417 73.9076 7.36789 74.8878 10.073 74.8867C22.2614 74.8826 34.4489 74.8867 46.6373 74.8836C48.1352 74.8836 49.8064 75.283 51.0842 74.7449C52.3911 74.1943 53.3139 72.7209 54.4007 71.6479C55.0661 70.9909 55.6993 70.2985 56.3979 69.6791C56.9262 69.2109 57.547 69.2109 58.094 69.6843C58.6224 70.141 58.6452 70.8376 58.177 71.4456C58.0047 71.6687 57.794 71.8627 57.5947 72.0639C53.7561 75.9212 49.9165 79.7784 46.0789 83.6357C45.8661 83.8494 45.6637 84.0747 45.3191 84.4407L45.3201 84.4397ZM70.0396 2.60214C69.7261 2.56981 69.4157 2.72936 69.1707 2.96398C68.3964 3.70749 67.6521 4.48228 66.8819 5.22891C66.611 5.49169 66.747 5.65124 66.9473 5.85145C68.6652 7.571 70.3842 9.2895 72.0876 11.0226C72.3689 11.3083 72.5516 11.3302 72.835 11.0289C73.4931 10.3292 74.1969 9.6722 74.855 8.97353C75.5556 8.23003 75.5608 7.55536 74.8425 6.81394C73.6239 5.55426 72.3782 4.32273 71.1368 3.08599C70.8513 2.80236 70.5181 2.59171 70.0385 2.60214H70.0396ZM68.2936 15.5024C68.4057 15.4148 68.521 15.3429 68.6154 15.249C69.1988 14.6713 69.7676 14.079 70.3614 13.5117C70.6053 13.2781 70.5897 13.1176 70.3582 12.8871C68.6144 11.1477 66.8746 9.40316 65.1463 7.64816C64.8816 7.38017 64.7135 7.39163 64.4633 7.6565C63.9402 8.21335 63.4045 8.76185 62.8419 9.27699C62.5056 9.58461 62.5513 9.7796 62.8554 10.081C64.5661 11.7744 66.256 13.4877 67.9542 15.1927C68.0538 15.2928 68.1618 15.3825 68.2936 15.5024ZM32.9624 40.5552C31.4469 43.8275 31.4511 43.8588 33.6953 46.0236C33.7565 46.083 33.8198 46.1393 33.8759 46.204C34.0451 46.4 34.235 46.4355 34.4821 46.3447C35.5398 45.9558 36.6028 45.5804 37.5993 45.2227C36.0557 43.669 34.5247 42.1277 32.9624 40.5552Z" fill="white"/>
<path d="M69.4065 77.9377C67.2287 77.9377 65.0519 77.9304 62.8742 77.9419C62.2109 77.9461 61.6005 77.8387 61.3109 77.1692C61.0078 76.4674 61.3472 75.9283 61.8455 75.4298C66.2913 70.9772 70.7289 66.5172 75.1633 62.053C75.6533 61.5598 76.1723 61.1917 76.8864 61.4962C77.5643 61.785 77.6785 62.3961 77.6774 63.0562C77.6753 67.4307 77.6816 71.8051 77.6733 76.1796C77.6712 77.482 77.2197 77.9294 75.9387 77.9336C73.761 77.9409 71.5842 77.9357 69.4065 77.9357V77.9377ZM65.8055 75.3151C65.819 75.3214 65.8647 75.3662 65.9104 75.3662C68.7951 75.3725 71.6797 75.36 74.5634 75.3881C75.21 75.3944 75.126 75.0023 75.126 74.6071C75.126 71.9084 75.128 69.2096 75.1218 66.5099C75.1218 66.3295 75.2142 66.1084 75.0606 66.0156C71.9714 69.12 68.8989 72.2077 65.8066 75.3151H65.8055Z" fill="white"/>
</svg>
