<svg width="93" height="87" viewBox="0 0 93 87" fill="none" xmlns="http://www.w3.org/2000/svg">
<path d="M0.00241351 13.2669C0.0557844 13.1626 0.130992 13.0655 0.157678 12.9564C1.12321 8.74735 4.29878 6.19768 8.61697 6.19525C19.8152 6.18797 31.0109 6.19525 42.2091 6.19525C45.6904 6.19525 49.1692 6.19525 52.6504 6.19525C52.9221 6.19525 53.1987 6.1807 53.4655 6.21951C54.3898 6.36022 55.0448 7.1438 55.023 8.0511C55.0011 8.96569 54.3219 9.7056 53.383 9.80507C53.0531 9.84145 52.7183 9.82205 52.386 9.82205C37.8885 9.82205 23.3934 9.82205 8.89596 9.82205C5.48992 9.82205 3.63407 11.6852 3.63407 15.1009C3.63407 30.5348 3.63407 45.9687 3.63407 61.405C3.63407 64.8062 5.49963 66.6548 8.92507 66.6548C33.9827 66.6548 59.0428 66.6548 84.1004 66.6548C87.4555 66.6548 89.3453 64.7795 89.3453 61.4487C89.3453 52.4897 89.3453 43.5331 89.3453 34.574C89.3453 34.2708 89.3284 33.9651 89.3648 33.6667C89.4812 32.7327 90.2381 32.068 91.1575 32.068C92.077 32.068 92.8314 32.7279 92.9551 33.6643C92.9915 33.9336 92.9746 34.2077 92.9746 34.4794C92.9746 43.4676 92.977 52.4557 92.9746 61.4439C92.9746 66.7931 89.4642 70.284 84.0883 70.2865C74.3433 70.2865 64.5982 70.2865 54.8532 70.2865C54.5305 70.2865 54.2103 70.2865 53.8901 70.2865C53.8464 70.6431 54.0526 70.8129 54.1739 71.0045C56.6314 74.8545 59.101 78.6924 61.5464 82.5496C61.8375 83.0081 62.1407 83.2046 62.6987 83.1949C64.6346 83.1585 66.573 83.1755 68.5089 83.1828C69.7534 83.1877 70.5879 83.8985 70.6121 84.9538C70.6388 86.0381 69.7825 86.8096 68.4967 86.8096C53.8197 86.8145 39.1403 86.8145 24.4633 86.8096C23.1872 86.8096 22.3236 86.0284 22.3551 84.9465C22.3843 83.8912 23.2139 83.1877 24.4657 83.1828C26.4332 83.1755 28.4006 83.1755 30.368 83.1828C30.7441 83.1828 31.0352 83.1537 31.2778 82.7704C33.8857 78.6608 36.5178 74.5658 39.167 70.432C38.8516 70.1773 38.5095 70.2889 38.2063 70.2889C28.5219 70.2816 18.8375 70.284 9.15311 70.2816C4.226 70.2816 1.37065 68.0885 0.111584 63.3361C0.0970286 63.2852 0.0388152 63.2463 0 63.2002C0 46.5534 0 29.9089 0 13.262L0.00241351 13.2669ZM57.5047 83.178C57.4853 83.0251 57.4975 82.9596 57.4684 82.9159C54.8653 78.8379 52.255 74.7648 49.6641 70.6795C49.4215 70.2962 49.1134 70.2816 48.7398 70.284C47.2866 70.2913 45.8335 70.3156 44.3828 70.2743C43.8005 70.2573 43.4633 70.432 43.1431 70.9366C40.7196 74.7696 38.2597 78.5808 35.8216 82.4041C35.6833 82.62 35.448 82.8044 35.4941 83.1294C35.5838 83.1464 35.6663 83.1755 35.7488 83.1755C42.9806 83.1755 50.2123 83.1755 57.5023 83.1755L57.5047 83.178Z" fill="white"/>
<path d="M52.5656 37.5069C56.5636 39.6491 59.1812 42.8222 60.1807 47.218C60.8041 49.9642 60.513 52.7637 60.4718 55.539C60.4572 56.4269 59.6809 57.0067 58.7178 57.0334C57.7814 57.0601 56.8425 57.0407 55.9037 57.0407C48.7302 57.0407 41.5591 57.0407 34.3855 57.0407C32.6291 57.0407 31.9984 56.4463 32.0227 54.7118C32.0542 52.3562 31.831 49.9885 32.2968 47.6498C33.141 43.3971 35.4821 40.207 39.1743 37.9776C39.4072 37.8369 39.645 37.7059 39.8779 37.57C39.9021 37.5555 39.9167 37.5288 39.9361 37.5069C34.2594 32.461 35.7829 25.3505 39.4679 22.0561C43.5265 18.4268 49.6836 18.5894 53.5044 22.4563C57.1846 26.1826 57.7741 32.9922 52.568 37.5094L52.5656 37.5069ZM46.3091 53.4139C49.5453 53.4139 52.7815 53.3896 56.0177 53.4309C56.7528 53.4406 56.9517 53.2077 56.908 52.5139C56.8498 51.609 56.9105 50.6993 56.8717 49.792C56.6679 45.0613 53.2085 40.9445 48.6331 39.9644C43.7861 38.9261 38.9317 41.2405 36.7727 45.5951C35.9187 47.3175 35.6325 49.1442 35.6398 51.0437C35.6495 53.409 35.6397 53.409 37.9614 53.409C40.7439 53.409 43.5265 53.409 46.3091 53.409V53.4139ZM46.3115 35.981C49.8849 35.9737 52.7864 33.065 52.7548 29.5231C52.7233 25.8963 49.8291 23.0458 46.1999 23.0652C42.6604 23.0847 39.7614 26.037 39.793 29.5862C39.8245 33.1524 42.7162 35.9907 46.3115 35.981Z" fill="white"/>
<path d="M75.695 0.0114895C79.3873 0.0114895 83.0772 0.00421165 86.7695 0.0114895C90.52 0.0187674 92.9702 2.4617 92.9751 6.20009C92.9823 11.7361 92.9823 17.2746 92.9751 22.8106C92.9702 26.4495 90.5345 28.9021 86.8932 28.9216C83.4144 28.941 79.9332 28.941 76.4543 28.9118C75.8236 28.907 75.3893 29.1011 74.9551 29.545C73.1162 31.4276 71.2361 33.2713 69.3827 35.1393C68.7422 35.7846 68.046 36.1945 67.1169 35.8015C66.1998 35.4134 65.9645 34.6395 65.9718 33.7274C65.9791 32.3664 65.9524 31.003 65.9839 29.6421C65.9961 29.0914 65.8165 28.8924 65.2586 28.9143C64.5065 28.9434 63.7448 28.9701 63 28.7954C60.3266 28.1744 58.4756 25.9449 58.4611 23.1866C58.4295 17.3764 58.4247 11.5687 58.4611 5.75857C58.4829 2.51992 61.0035 0.0454529 64.2615 0.0163415C68.0727 -0.0151958 71.8862 0.00906367 75.6998 0.00663772L75.695 0.0114895ZM69.601 29.4844C69.6762 29.5183 69.7538 29.5523 69.8291 29.5863C70.848 28.5577 71.9081 27.5679 72.8712 26.4907C73.6596 25.6077 74.5548 25.2608 75.7411 25.2778C79.4601 25.3336 83.1791 25.3069 86.898 25.2923C88.4749 25.285 89.3386 24.4432 89.341 22.9003C89.3531 17.277 89.3531 11.6512 89.341 6.02785C89.3386 4.54074 88.4531 3.65284 86.9635 3.65042C79.4649 3.63829 71.9639 3.64071 64.4653 3.65042C62.9612 3.65042 62.0854 4.51891 62.083 6.01087C62.0709 11.6658 62.0709 17.3207 62.083 22.9755C62.0879 24.4408 62.9272 25.2632 64.3998 25.2948C65.4575 25.319 66.5176 25.2802 67.5753 25.3069C68.9169 25.3408 69.5695 26.0056 69.5986 27.335C69.6156 28.0506 69.601 28.7687 69.601 29.4844Z" fill="white"/>
</svg>
